<svg width="120" height="120" viewBox="0 0 120 120" fill="none" xmlns="http://www.w3.org/2000/svg">
<path d="M58.0202 0.592517C56.9564 1.21466 57.311 0.177753 53.5287 13.4798C52.2285 18.0422 50.8101 22.6342 50.3965 23.6711C45.2549 36.2622 35.7104 45.6832 23.211 50.4827C22.0882 50.8974 16.7693 52.5268 11.3913 54.0674C2.52647 56.5856 1.58089 56.9411 0.842157 57.7706C-0.280719 59.0149 -0.280719 60.674 0.842157 61.9183C1.58089 62.7478 2.52647 63.1033 11.3913 65.6215C22.3541 68.7619 23.9793 69.3544 28.3822 71.5763C36.8037 75.9017 43.9842 83.1009 48.2984 91.5443C50.5147 95.9585 51.1056 97.588 54.2379 108.579C56.7496 117.467 57.1042 118.415 57.9315 119.156C59.1726 120.281 60.8274 120.281 62.0685 119.156C62.8958 118.415 63.2504 117.467 65.7621 108.579C68.8944 97.588 69.4853 95.9585 71.7015 91.5443C76.0453 83.0712 83.1667 75.9314 91.6178 71.5763C96.0207 69.3544 97.6459 68.7619 108.609 65.6215C117.474 63.1033 118.419 62.7478 119.158 61.9183C120.281 60.674 120.281 59.0149 119.158 57.7706C118.419 56.9115 117.474 56.5856 108.609 54.0674C103.231 52.5268 97.6754 50.8085 96.198 50.216C84.0827 45.4462 74.5974 35.9659 69.6331 23.7008C69.1899 22.6342 67.7715 18.0422 66.4713 13.4798C62.689 0.177753 63.0436 1.21466 61.9798 0.592517C61.4479 0.266631 60.5614 -2.55462e-06 60 -2.55462e-06C59.4386 -2.55462e-06 58.5521 0.266631 58.0202 0.592517Z" fill="url(#paint0_linear_2492_5)"/>
<defs>
<linearGradient id="paint0_linear_2492_5" x1="-1.25759e-07" y1="1.26278e-07" x2="120.232" y2="119.738" gradientUnits="userSpaceOnUse">
<stop stop-color="#FFBAE6"/>
<stop offset="1" stop-color="#9F6DFC"/>
</linearGradient>
</defs>
</svg>
