<svg width="643" height="238" viewBox="0 0 643 238" fill="none" xmlns="http://www.w3.org/2000/svg">
<path d="M37.5569 47.164L31.7382 52.9002V74.3577H0V0.212454H31.7382V26.2376L55.6477 0H90.0308L59.6679 31.5489L90.7714 74.3577H55.5419L37.5569 47.164Z" fill="url(#paint0_linear_2466_47)"/>
<path d="M151.811 64.3725H126.738L123.458 74.3577H91.826L123.141 0H155.197L186.512 74.3577H154.879L151.811 64.3725ZM146.31 46.208L143.03 35.5855C142.396 33.6734 141.796 31.7259 141.232 29.7431C140.597 27.4061 140.103 25.4232 139.751 23.7945H139.433C138.587 27.6186 137.494 31.5489 136.154 35.5855L132.663 46.208H146.31Z" fill="url(#paint1_linear_2466_47)"/>
<path d="M222.432 55.3433H236.82C241.969 55.3433 244.543 53.0772 244.543 48.5449V48.2263C244.543 43.8356 241.969 41.6403 236.82 41.6403H222.432V55.3433ZM268.241 0V20.8201H222.432V22.626H243.168C247.893 22.626 253.077 23.2987 258.72 24.6443C270.357 27.9726 276.176 35.7625 276.176 48.0138V48.4387C276.176 57.22 273.39 63.7351 267.818 67.9841C262.246 72.1623 253.641 74.2514 242.004 74.2514H222.432V74.3577H191.752V0H268.241Z" fill="url(#paint2_linear_2466_47)"/>
<path d="M372.222 74.3577H341.013V59.0612C341.013 56.441 341.154 52.9356 341.436 48.5449C341.718 43.5878 342.035 39.8345 342.388 37.2851H342.07L314.141 74.3577H284.942V0H316.151V15.2964C316.151 17.9167 316.045 21.4221 315.834 25.8127C315.481 30.7699 315.128 34.5232 314.776 37.0726H315.093L343.023 0H372.222V74.3577Z" fill="url(#paint3_linear_2466_47)"/>
<path d="M470.59 0V74.3577H438.851V47.2702H414.519V74.3577H382.781V0H414.519V26.0252H438.851V0H470.59Z" fill="url(#paint4_linear_2466_47)"/>
<path d="M555.509 55.8745V74.3577H481.136V0H554.875V18.4832H512.874V27.9372H551.912V46.4204H512.874V55.8745H555.509Z" fill="url(#paint5_linear_2466_47)"/>
<path d="M641.335 21.6699H617.849V74.3577H586.11V21.6699H560.614V0H641.335V21.6699Z" fill="url(#paint6_linear_2466_47)"/>
<path d="M107.42 237.189C37.7143 237.189 2.86133 222.477 2.86133 193.055V192.703H82.5252V193.055C82.5252 201.143 90.1247 205.187 105.324 205.187C121.92 205.187 130.219 201.612 130.219 194.461V194.11C130.219 187.428 122.095 184.087 105.848 184.087H77.0221V159.822H105.848C122.095 159.822 130.219 156.482 130.219 149.8V149.448C130.219 142.767 122.27 139.426 106.372 139.426C90.4741 139.426 82.5252 143.47 82.5252 151.558V151.91H4.95775V151.558C4.95775 122.136 39.4613 107.424 108.468 107.424C143.234 107.424 168.653 110.531 184.726 116.744C200.623 122.839 208.572 132.334 208.572 145.228V145.58C208.572 152.027 206.214 157.126 201.497 160.877C196.955 164.629 189.355 167.676 178.698 170.021C190.054 172.6 198.09 175.999 202.807 180.219C207.524 184.439 209.883 190.359 209.883 197.978V198.33C209.883 211.81 201.846 221.598 185.774 227.694C169.527 234.024 143.409 237.189 107.42 237.189Z" fill="url(#paint7_linear_2466_47)"/>
<path d="M393.516 197.802V233.848H225.278V197.802H280.047V173.537C264.673 176.82 247.29 178.461 227.899 178.461V142.415C244.321 142.181 257.161 139.191 266.42 133.448C275.505 127.821 280.047 120.26 280.047 110.765H358.663V197.802H393.516Z" fill="url(#paint8_linear_2466_47)"/>
<path d="M525.367 237.364C482.914 237.13 452.778 232.09 434.959 222.243C416.965 212.514 407.967 196.161 407.967 173.186V172.307C407.967 148.862 416.965 132.158 434.959 122.194C452.953 112.113 483.089 107.131 525.367 107.249C567.819 107.366 598.043 112.406 616.037 122.37C633.856 132.217 642.766 148.862 642.766 172.307V173.186C642.766 196.278 633.856 212.748 616.037 222.595C597.868 232.676 567.645 237.599 525.367 237.364ZM525.367 199.561C539.867 199.443 549.912 197.392 555.503 193.406C560.918 189.538 563.626 182.739 563.626 173.01V172.131C563.626 162.167 560.918 155.192 555.503 151.207C549.912 146.987 539.867 144.935 525.367 145.053C510.867 145.17 500.821 147.221 495.231 151.207C489.815 155.192 487.107 162.167 487.107 172.131V173.01C487.107 182.856 489.815 189.714 495.231 193.582C500.821 197.685 510.867 199.678 525.367 199.561Z" fill="url(#paint9_linear_2466_47)"/>
<defs>
<linearGradient id="paint0_linear_2466_47" x1="1.92472e-06" y1="0.400377" x2="643" y2="237.4" gradientUnits="userSpaceOnUse">
<stop stop-color="#FEB9E5"/>
<stop offset="1" stop-color="#9F6DFC"/>
</linearGradient>
<linearGradient id="paint1_linear_2466_47" x1="1.92472e-06" y1="0.400377" x2="643" y2="237.4" gradientUnits="userSpaceOnUse">
<stop stop-color="#FEB9E5"/>
<stop offset="1" stop-color="#9F6DFC"/>
</linearGradient>
<linearGradient id="paint2_linear_2466_47" x1="1.92472e-06" y1="0.400377" x2="643" y2="237.4" gradientUnits="userSpaceOnUse">
<stop stop-color="#FEB9E5"/>
<stop offset="1" stop-color="#9F6DFC"/>
</linearGradient>
<linearGradient id="paint3_linear_2466_47" x1="1.92472e-06" y1="0.400377" x2="643" y2="237.4" gradientUnits="userSpaceOnUse">
<stop stop-color="#FEB9E5"/>
<stop offset="1" stop-color="#9F6DFC"/>
</linearGradient>
<linearGradient id="paint4_linear_2466_47" x1="1.92472e-06" y1="0.400377" x2="643" y2="237.4" gradientUnits="userSpaceOnUse">
<stop stop-color="#FEB9E5"/>
<stop offset="1" stop-color="#9F6DFC"/>
</linearGradient>
<linearGradient id="paint5_linear_2466_47" x1="1.92472e-06" y1="0.400377" x2="643" y2="237.4" gradientUnits="userSpaceOnUse">
<stop stop-color="#FEB9E5"/>
<stop offset="1" stop-color="#9F6DFC"/>
</linearGradient>
<linearGradient id="paint6_linear_2466_47" x1="1.92472e-06" y1="0.400377" x2="643" y2="237.4" gradientUnits="userSpaceOnUse">
<stop stop-color="#FEB9E5"/>
<stop offset="1" stop-color="#9F6DFC"/>
</linearGradient>
<linearGradient id="paint7_linear_2466_47" x1="1.92472e-06" y1="0.400377" x2="643" y2="237.4" gradientUnits="userSpaceOnUse">
<stop stop-color="#FEB9E5"/>
<stop offset="1" stop-color="#9F6DFC"/>
</linearGradient>
<linearGradient id="paint8_linear_2466_47" x1="1.92472e-06" y1="0.400377" x2="643" y2="237.4" gradientUnits="userSpaceOnUse">
<stop stop-color="#FEB9E5"/>
<stop offset="1" stop-color="#9F6DFC"/>
</linearGradient>
<linearGradient id="paint9_linear_2466_47" x1="1.92472e-06" y1="0.400377" x2="643" y2="237.4" gradientUnits="userSpaceOnUse">
<stop stop-color="#FEB9E5"/>
<stop offset="1" stop-color="#9F6DFC"/>
</linearGradient>
</defs>
</svg>
