<svg width="592" height="590" viewBox="0 0 592 590" fill="none" xmlns="http://www.w3.org/2000/svg">
<path d="M285.888 2.9125C280.646 5.97064 282.393 0.873741 263.757 66.2596C257.35 88.686 250.361 111.258 248.323 116.355C222.988 178.246 175.959 224.555 114.37 248.146C108.837 250.185 82.6287 258.194 56.1293 265.767C12.4489 278.145 7.78966 279.892 4.14963 283.97C-1.38321 290.086 -1.38321 298.241 4.14963 304.357C7.78966 308.435 12.4489 310.182 56.1293 322.561C110.147 337.997 118.155 340.909 139.85 351.831C181.346 373.093 216.727 408.48 237.985 449.983C248.905 471.681 251.817 479.691 267.251 533.718C279.627 577.405 281.374 582.065 285.451 585.706C291.566 591.24 299.72 591.24 305.835 585.706C309.912 582.065 311.659 577.405 324.035 533.718C339.469 479.691 342.381 471.681 353.301 449.983C374.705 408.334 409.795 373.238 451.436 351.831C473.131 340.909 481.139 337.997 535.157 322.561C578.838 310.182 583.497 308.435 587.137 304.357C592.67 298.241 592.67 290.086 587.137 283.97C583.497 279.747 578.838 278.145 535.157 265.767C508.658 258.194 481.285 249.748 474.005 246.835C414.308 223.39 367.57 176.789 343.109 116.5C340.925 111.258 333.936 88.686 327.53 66.2596C308.893 0.873741 310.64 5.97064 305.398 2.9125C302.778 1.31062 298.41 -1.21593e-05 295.643 -1.21593e-05C292.877 -1.21593e-05 288.509 1.31062 285.888 2.9125Z" fill="url(#paint0_linear_2492_5)"/>
<defs>
<linearGradient id="paint0_linear_2492_5" x1="-6.19664e-07" y1="6.20714e-07" x2="591" y2="590" gradientUnits="userSpaceOnUse">
<stop stop-color="#FFBAE6"/>
<stop offset="1" stop-color="#9F6DFC"/>
</linearGradient>
</defs>
</svg>
